# xmcd
#
# Track frame offsets:
#   150
#   13433
#   25890
#   39365
#   49883
#   65000
#   75748
#   91213
#   104393
#   117833
#   132835
#   148128
#   165360
#   176658
#   187115
#   202125
#   212705
#   224250
#   234385
#   248500
#   262665
#   277480
#   289013
#   299943
#   311625
#   327665
#
# Disc length: 4509 seconds
#
# Revision: 2
# Processed by: cddbd v1.5PL3 Copyright (c) Steve Scherf et al.
# Submitted via: Media_Universe 3.0
#
DISCID=9c119b1a
DTITLE=Kenny Rogers - Kenny Rogers And The First Edition
DYEAR=1900
DGENRE=Easy Listening
TTITLE0=Ruby Don't Take Your Love to Town
TTITLE1=Reuben James
TTITLE2=Shine on Ruby Mountain
TTITLE3=Ticket to Nowhere
TTITLE4=Conditions (Just Dropped In)
TTITLE5=She Even Woke Me Up To Say Goodbye
TTITLE6=My Washington Woman
TTITLE7=Run Thru Your Mind
TTITLE8=Sleep Comes Easy
TTITLE9=After All (I Live My Life)
TTITLE10=For the Good Times
TTITLE11=Something's Burning
TTITLE12=Hurry Up Love
TTITLE13=Trying Just as Hard
TTITLE14=Heed the Call
TTITLE15=We All Got To Help Each Other
TTITLE16=Poem For My Little Lady
TTITLE17=Where Does Rosie Go
TTITLE18=Sunshine
TTITLE19=Loser
TTITLE20=Church Without A Name
TTITLE21=Me and Bobby McGee
TTITLE22=Always Leaving Always Gone
TTITLE23=Calico Silver
TTITLE24=The Way It Used To Be
TTITLE25=Goodtime Liberator
EXTD=
EXTT0=
EXTT1=
EXTT2=
EXTT3=
EXTT4=
EXTT5=
EXTT6=
EXTT7=
EXTT8=
EXTT9=
EXTT10=
EXTT11=
EXTT12=
EXTT13=
EXTT14=
EXTT15=
EXTT16=
EXTT17=
EXTT18=
EXTT19=
EXTT20=
EXTT21=
EXTT22=
EXTT23=
EXTT24=
EXTT25=
PLAYORDER=
